<svg width="67" height="67" viewBox="0 0 67 67" fill="none" xmlns="http://www.w3.org/2000/svg">
<path d="M53.4976 29.9169C53.4974 16.833 42.891 6.2265 29.8071 6.2265C16.7233 6.22661 6.11681 16.8331 6.1167 29.9169C6.1167 43.0008 16.7232 53.6072 29.8071 53.6074C42.8911 53.6074 53.4976 43.0009 53.4976 29.9169ZM37.6948 21.123C38.8664 19.9514 40.7664 19.9514 41.938 21.123C43.1095 22.2946 43.1095 24.1946 41.938 25.3661L28.5923 38.7109C28.0297 39.2734 27.2668 39.5897 26.4712 39.5898C25.6756 39.5898 24.9127 39.2734 24.3501 38.7109L17.6772 32.038L17.5708 31.9267C16.5066 30.749 16.5422 28.9309 17.6772 27.7958C18.8123 26.6609 20.6305 26.6252 21.8081 27.6894L21.9194 27.7958L26.4702 32.3466L37.6948 21.123ZM59.4976 29.9169C59.4976 37.0351 56.9913 43.5669 52.8149 48.6816L65.2915 61.1591L65.3979 61.2714C66.462 62.4491 66.4265 64.2663 65.2915 65.4013C64.1565 66.5363 62.3393 66.5718 61.1616 65.5078L61.0493 65.4013L48.5718 52.9247C43.4571 57.1011 36.9253 59.6074 29.8071 59.6074C13.4095 59.6072 0.116699 46.3145 0.116699 29.9169C0.116813 13.5194 13.4096 0.226615 29.8071 0.226501C46.2047 0.226501 59.4974 13.5193 59.4976 29.9169Z" fill="#371DCD"/>
</svg>
