<svg width="70" height="63" viewBox="0 0 70 63" fill="none" xmlns="http://www.w3.org/2000/svg">
<path d="M63.4551 49.9555C63.4551 46.245 60.1259 43.2368 56.0186 43.2367C51.9111 43.2367 48.5811 46.2449 48.5811 49.9555C48.5812 53.666 51.9112 56.6734 56.0186 56.6734C60.1258 56.6733 63.4549 53.6659 63.4551 49.9555ZM21.7061 12.2406C21.7061 8.53008 18.3769 5.52188 14.2695 5.52176C10.162 5.52176 6.83203 8.53001 6.83203 12.2406C6.83216 15.9511 10.1621 18.9585 14.2695 18.9585C18.3768 18.9584 21.7059 15.951 21.7061 12.2406ZM69.4551 49.9555C69.4549 56.6594 63.4396 62.0936 56.0186 62.0937C48.5974 62.0937 42.5812 56.6595 42.5811 49.9555C42.5811 44.1829 47.0414 39.3511 53.0186 38.1199V18.5263C53.0186 17.578 52.6015 16.6684 51.8594 15.9979C51.1636 15.3693 50.235 14.9991 49.2568 14.9551L49.0605 14.9507H38.623C36.9663 14.9507 35.6232 13.7372 35.623 12.2406C35.623 10.7438 36.9662 9.53048 38.623 9.53048H49.0605L49.5537 9.54106C52.015 9.65131 54.3507 10.5832 56.1016 12.1647C57.9691 13.8518 59.0186 16.1404 59.0186 18.5263V38.1199C64.9955 39.3513 69.4551 44.1831 69.4551 49.9555ZM27.7061 12.2406C27.7059 18.0128 23.2462 22.843 17.2695 24.0744V43.6698L17.2744 43.8471C17.323 44.7308 17.7329 45.5696 18.4287 46.1982C19.171 46.8686 20.1779 47.2454 21.2275 47.2454H31.665L31.8193 47.2489C33.4043 47.3216 34.665 48.5056 34.665 49.9555C34.6649 51.4053 33.4043 52.5894 31.8193 52.6621L31.665 52.6656H21.2275C18.5865 52.6656 16.0531 51.7175 14.1855 50.0305C12.4348 48.4488 11.4033 46.3388 11.2812 44.1153L11.2695 43.6698V24.0744C5.29261 22.8431 0.832145 18.013 0.832031 12.2406C0.832031 5.5365 6.84834 0.101532 14.2695 0.101532C21.6906 0.101651 27.7061 5.53657 27.7061 12.2406Z" fill="#371DCD"/>
</svg>
