<svg width="62" height="56" viewBox="0 0 62 56" fill="none" xmlns="http://www.w3.org/2000/svg">
<path d="M33.4077 48.6961C34.27 47.4926 36.0354 47.0986 37.4253 47.8236C38.8601 48.5721 39.3514 50.23 38.5229 51.5262L38.3794 51.7432C37.6402 52.8166 36.6182 53.7097 35.4038 54.3431C34.1084 55.0186 32.6388 55.3743 31.1431 55.3743C29.6474 55.3743 28.1776 55.0186 26.8823 54.3431C25.6682 53.7097 24.6468 52.8164 23.9077 51.7432L23.7632 51.5262L23.6899 51.4036C22.9667 50.1272 23.4717 48.5487 24.8618 47.8236C26.2517 47.0988 28.0172 47.4925 28.8794 48.6961L28.9595 48.8152L29.0474 48.9422C29.2617 49.2319 29.547 49.4739 29.8823 49.6489C30.2656 49.8487 30.7006 49.9541 31.1431 49.9541C31.5857 49.9541 32.0205 49.8488 32.4038 49.6489C32.7871 49.449 33.1053 49.1614 33.3267 48.8152L33.4077 48.6961ZM44.7075 17.7485C44.7075 14.4987 43.2787 11.3816 40.7349 9.08359C38.191 6.78565 34.7405 5.4948 31.1431 5.4948C27.5456 5.49486 24.0951 6.78559 21.5513 9.08359C19.0075 11.3816 17.5787 14.4987 17.5786 17.7485L17.5669 18.8337C17.4483 24.1559 16.4502 27.9756 14.8853 30.9683C13.3538 33.8969 11.3565 35.8612 9.62354 37.4842H52.6646C50.9284 35.8602 48.9318 33.8955 47.4009 30.9683C45.7311 27.7754 44.7075 23.6423 44.7075 17.7485ZM0.535645 17.7485C0.53568 11.3466 3.01007 5.82337 6.60596 1.22143C7.56147 -0.00127492 9.43404 -0.292761 10.7876 0.570365C12.1411 1.43354 12.4638 3.12518 11.5083 4.34794C8.47847 8.2255 6.53568 12.6782 6.53564 17.7485C6.53564 19.2453 5.1925 20.4587 3.53564 20.4587C1.87879 20.4587 0.535645 19.2453 0.535645 17.7485ZM55.7515 17.7485C55.7514 12.8367 53.9276 8.50444 51.0591 4.71317L50.7788 4.34794L50.6929 4.23149C49.8444 3.01978 50.1882 1.40654 51.4995 0.570365C52.8109 -0.265748 54.6087 -0.0179478 55.5884 1.11027L55.6802 1.22143L56.0142 1.65635C59.4284 6.17014 61.7514 11.5468 61.7515 17.7485C61.7515 19.2452 60.4081 20.4584 58.7515 20.4587C57.0946 20.4587 55.7515 19.2453 55.7515 17.7485ZM50.7075 17.7485C50.7075 23.0752 51.6312 26.3695 52.8257 28.6534C53.8736 30.6571 55.2024 32.0407 56.7495 33.502L57.4253 34.1354L57.4917 34.198C58.1962 34.8974 58.6749 35.7564 58.8794 36.6814L58.9165 36.8667L58.9468 37.0537C59.0766 37.9896 58.9219 38.9414 58.4985 39.8062C58.0469 40.7283 57.3081 41.5119 56.3726 42.062C55.4371 42.612 54.3452 42.9038 53.229 42.9036V42.9045H9.05518C7.93861 42.9037 6.84573 42.6105 5.91064 42.0593C4.97563 41.5081 4.23799 40.7229 3.7876 39.8C3.33725 38.8771 3.19425 37.8559 3.37451 36.8605L3.41162 36.6744C3.61752 35.7497 4.09773 34.8913 4.80322 34.1927L4.86475 34.1345C6.69951 32.4233 8.26285 30.9435 9.46045 28.6534C10.5801 26.5122 11.462 23.4827 11.5679 18.7234L11.5786 17.7485C11.5787 13.0612 13.6401 8.56582 17.3091 5.25131C20.9781 1.93683 25.9543 0.0746295 31.1431 0.074569C36.3319 0.074569 41.309 1.93677 44.978 5.25131C48.6469 8.5658 50.7075 13.0613 50.7075 17.7485Z" fill="#371DCD"/>
</svg>
