<svg width="540" height="539" viewBox="0 0 540 539" fill="none" xmlns="http://www.w3.org/2000/svg">
<path d="M510.213 155.192C511.384 154.137 512.53 153.05 513.651 151.928C521.798 143.777 528.193 134.284 532.663 123.711C537.293 112.761 539.639 101.134 539.639 89.1524C539.639 77.1709 537.291 65.5443 532.663 54.5935C528.193 44.021 521.798 34.528 513.651 26.3767C505.504 18.2254 496.016 11.8261 485.45 7.3537C474.505 2.72152 462.885 0.374329 450.91 0.374329C438.935 0.374329 427.315 2.7232 416.371 7.3537C405.804 11.8261 396.316 18.2254 388.169 26.3767C380.023 34.528 373.627 44.021 369.157 54.5935C364.527 65.5443 362.181 77.1709 362.181 89.1524C362.181 101.134 364.529 112.761 369.157 123.711C373.627 134.284 380.023 143.777 388.169 151.928C396.316 160.079 405.804 166.479 416.371 170.951C427.315 175.583 438.935 177.93 450.91 177.93C462.885 177.93 474.505 175.582 485.45 170.951C489.251 169.342 492.913 167.482 496.423 165.382C501.979 177.577 511.95 202.6 517.328 235.06C521.346 259.317 522.036 283.282 519.381 306.286C516.115 334.575 507.736 361.612 494.476 386.647C483.482 407.404 469.38 426.409 452.562 443.135C436.057 459.55 417.149 473.566 396.363 484.796C375.553 496.039 353.176 504.316 329.855 509.399C306.043 514.59 281.549 516.375 257.055 514.709L255.916 531.484C262.217 531.913 268.516 532.126 274.807 532.126C294.552 532.126 314.2 530.018 333.433 525.826C358.293 520.409 382.152 511.58 404.349 499.59C426.554 487.594 446.763 472.611 464.411 455.059C482.428 437.141 497.539 416.773 509.326 394.52C523.569 367.628 532.569 338.59 536.078 308.215C538.915 283.653 538.185 258.115 533.91 232.309C527.741 195.07 515.746 166.83 510.216 155.192H510.213ZM478.905 155.466C470.042 159.217 460.625 161.117 450.91 161.117C441.196 161.117 431.778 159.215 422.916 155.466C414.352 151.842 406.659 146.652 400.052 140.039C393.444 133.428 388.257 125.731 384.634 117.162C380.885 108.295 378.984 98.8724 378.984 89.1524C378.984 79.4324 380.885 70.01 384.634 61.1424C388.255 52.5742 393.443 44.8769 400.052 38.2657C406.659 31.6546 414.352 26.4642 422.916 22.8391C431.778 19.088 441.196 17.188 450.91 17.188C460.625 17.188 470.042 19.0897 478.905 22.8391C487.468 26.4625 495.161 31.6529 501.769 38.2657C508.376 44.8769 513.564 52.5742 517.187 61.1424C520.936 70.01 522.836 79.4324 522.836 89.1524C522.836 98.8724 520.936 108.295 517.187 117.162C513.565 125.731 508.378 133.428 501.769 140.039C495.161 146.65 487.468 151.841 478.905 155.466Z" fill="#361BD0"/>
<path d="M45.8057 152.105C56.7991 131.348 70.9014 112.344 87.7192 95.6173C104.224 79.202 123.133 65.1861 143.918 53.9563C164.729 42.7129 187.105 34.4355 210.426 29.3528C234.238 24.1624 258.732 22.3767 283.226 24.043L284.366 7.26795C258.29 5.4941 232.21 7.39742 206.849 12.9241C181.988 18.3431 158.129 27.1703 135.933 39.1602C113.727 51.1568 93.5183 66.1395 75.8704 83.6913C57.8528 101.61 42.7423 121.978 30.9557 144.231C16.7123 171.123 7.7119 200.16 4.20483 230.536C1.36825 255.097 2.09756 280.635 6.37259 306.441C12.5415 343.68 24.5381 371.919 30.0667 383.559C28.8955 384.613 27.7494 385.701 26.6286 386.822C18.4818 394.974 12.0861 404.467 7.61612 415.039C2.98651 425.99 0.640625 437.617 0.640625 449.598C0.640625 461.579 2.98819 473.206 7.61612 484.157C12.0861 494.729 18.4818 504.222 26.6286 512.374C34.7753 520.525 44.2631 526.924 54.8297 531.397C65.7743 536.029 77.3946 538.376 89.3694 538.376C101.344 538.376 112.964 536.027 123.909 531.397C134.476 526.924 143.963 520.525 152.11 512.374C160.257 504.222 166.653 494.729 171.123 484.157C175.752 473.206 178.098 461.579 178.098 449.598C178.098 437.617 175.751 425.99 171.123 415.039C166.653 404.467 160.257 394.974 152.11 386.822C143.963 378.671 134.476 372.272 123.909 367.799C112.964 363.167 101.344 360.82 89.3694 360.82C77.3946 360.82 65.7743 363.169 54.8297 367.799C51.0285 369.408 47.3668 371.268 43.8564 373.368C38.3009 361.173 28.3292 336.151 22.9518 303.692C18.9339 279.435 18.2432 255.47 20.8983 232.466C24.1651 204.177 32.5437 177.14 45.804 152.105H45.8057ZM61.3766 383.285C70.2393 379.534 79.6564 377.634 89.371 377.634C99.0856 377.634 108.503 379.535 117.365 383.285C125.929 386.908 133.622 392.098 140.229 398.711C146.837 405.322 152.024 413.02 155.647 421.588C159.396 430.454 161.297 439.878 161.297 449.598C161.297 459.318 159.396 468.74 155.647 477.608C152.026 486.176 146.839 493.874 140.229 500.485C133.622 507.096 125.929 512.286 117.365 515.911C108.503 519.662 99.0856 521.562 89.371 521.562C79.6564 521.562 70.2393 519.661 61.3766 515.911C52.8131 512.288 45.1201 507.097 38.5126 500.485C31.9051 493.874 26.7176 486.176 23.0946 477.608C19.3456 468.74 17.445 459.318 17.445 449.598C17.445 439.878 19.3456 430.456 23.0946 421.588C26.716 413.02 31.9035 405.322 38.5126 398.711C45.1201 392.1 52.8131 386.91 61.3766 383.285Z" fill="#361BD0"/>
<path d="M470.782 113.886V92.9531C470.781 90.9833 469.915 89.094 468.374 87.701C466.928 86.395 464.999 85.6256 462.966 85.5345L462.559 85.5247H434.949L442.935 92.7389C444.895 94.5092 444.895 97.3788 442.935 99.1491C440.975 100.919 437.798 100.919 435.838 99.1491L419.288 84.1975C417.328 82.4272 417.328 79.5568 419.288 77.7864L435.838 62.8349C437.798 61.0646 440.975 61.0646 442.935 62.8349C444.895 64.6051 444.895 67.4748 442.935 69.2451L434.95 76.4584H462.559L463.012 76.4637C467.69 76.5686 472.152 78.2934 475.469 81.2899C478.894 84.3832 480.818 88.5786 480.818 92.9531V113.886C480.818 116.39 478.571 118.42 475.8 118.42C473.028 118.42 470.782 116.39 470.782 113.886Z" fill="#371DCD"/>
<path d="M69.5244 427.599L70.6494 447.347C70.7554 449.205 71.7335 450.952 73.3687 452.203C74.902 453.376 76.8956 454.023 78.9574 454.026L79.3705 454.019L107.312 452.89L98.8423 446.411C96.7642 444.821 96.61 442.114 98.4978 440.364C100.386 438.613 103.602 438.483 105.68 440.073L123.233 453.502C125.312 455.092 125.466 457.8 123.578 459.55L107.632 474.332C105.743 476.082 102.528 476.212 100.449 474.622C98.3713 473.032 98.2171 470.325 100.105 468.574L107.798 461.443L79.8577 462.572L79.3982 462.585C74.6583 462.678 70.0501 461.233 66.532 458.542C62.9005 455.764 60.7277 451.884 60.4925 447.757L59.3675 428.009C59.233 425.648 61.3977 423.641 64.2023 423.528C67.0071 423.414 69.3898 425.237 69.5244 427.599Z" fill="#371DCD"/>
<rect x="182.606" y="341.4" width="182.366" height="56.5479" rx="20" fill="#EFEFEF"/>
<rect x="85.5953" y="275.125" width="182.366" height="56.5479" rx="20" fill="#EFEFEF"/>
<path d="M142.197 292.365V305.94C142.197 311.052 145.949 314.431 150.842 314.431C153.223 314.431 155.344 313.566 156.877 312.049V314.064H160.266V292.365H156.842V305.748C156.842 309.19 154.393 311.515 151.231 311.515C148.033 311.515 145.623 309.251 145.623 305.748V292.367H142.197V292.365ZM163.638 292.365V314.064H166.894V312.079C168.395 313.536 170.516 314.434 172.83 314.434C173.976 314.444 175.112 314.238 176.173 313.828C177.234 313.419 178.199 312.813 179.012 312.046C179.825 311.28 180.47 310.368 180.91 309.363C181.35 308.358 181.575 307.28 181.574 306.192C181.579 305.101 181.357 304.02 180.919 303.012C180.481 302.003 179.837 301.087 179.024 300.317C178.211 299.547 177.245 298.938 176.183 298.525C175.12 298.112 173.981 297.904 172.833 297.912C171.733 297.911 170.644 298.119 169.63 298.523C168.616 298.928 167.697 299.522 166.929 300.27V292.367H163.635L163.638 292.365ZM192.078 297.945C187.216 297.945 183.534 301.696 183.534 306.159C183.534 310.869 187.378 314.401 192.369 314.401C195.404 314.401 197.882 313.133 199.545 311.025L197.164 309.352C195.925 310.932 194.294 311.671 192.369 311.671C189.565 311.671 187.317 309.754 186.859 307.181H200.395V306.159C200.395 301.45 196.873 297.945 192.078 297.945ZM210.219 298.131C208.392 298.131 207.055 298.936 206.239 300.207V298.254H202.98V314.064H206.271V305.069C206.271 302.622 207.839 301.044 209.991 301.044H211.36V298.128H210.219V298.131ZM192.009 300.672C194.458 300.672 196.516 302.282 197.069 304.697H186.923C187.508 302.282 189.562 300.672 192.009 300.672ZM172.609 300.705C175.738 300.705 178.315 303.123 178.315 306.192C178.321 307.637 177.723 309.025 176.654 310.052C175.584 311.079 174.129 311.662 172.609 311.671C171.852 311.672 171.103 311.532 170.404 311.256C169.704 310.981 169.07 310.578 168.536 310.068C168.002 309.559 167.579 308.954 167.293 308.289C167.006 307.624 166.861 306.911 166.865 306.192C166.86 305.473 167.004 304.76 167.291 304.094C167.577 303.428 167.999 302.822 168.533 302.312C169.066 301.802 169.701 301.398 170.4 301.122C171.099 300.846 171.849 300.704 172.606 300.705H172.609Z" fill="black"/>
<rect x="272.081" y="273.55" width="182.366" height="56.5479" rx="20" fill="#EFEFEF"/>
<path d="M326.058 285.842C316.776 285.842 309.251 292.998 309.251 301.824C309.251 310.651 316.776 317.806 326.058 317.806C335.34 317.806 342.864 310.651 342.864 301.824C342.864 292.998 335.34 285.843 326.058 285.843L326.058 285.842ZM333.765 308.893C333.464 309.363 332.818 309.511 332.324 309.223C328.378 306.931 323.411 306.412 317.561 307.683C316.997 307.805 316.435 307.469 316.307 306.933C316.177 306.397 316.529 305.862 317.094 305.74C323.496 304.349 328.988 304.948 333.418 307.523C333.912 307.811 334.068 308.424 333.765 308.893ZM335.822 304.541C335.443 305.128 334.636 305.313 334.02 304.952C329.502 302.311 322.616 301.547 317.273 303.089C316.58 303.288 315.848 302.917 315.638 302.259C315.429 301.6 315.82 300.905 316.511 300.705C322.615 298.944 330.203 299.797 335.391 302.828C336.007 303.189 336.201 303.956 335.822 304.541ZM335.999 300.01C330.582 296.95 321.645 296.669 316.474 298.162C315.643 298.401 314.765 297.955 314.514 297.166C314.262 296.375 314.73 295.541 315.561 295.301C321.498 293.587 331.367 293.918 337.603 297.439C338.352 297.86 338.596 298.778 338.153 299.487C337.711 300.197 336.744 300.432 336 300.01H335.999ZM354.976 300.596C352.074 299.938 351.558 299.476 351.558 298.506C351.558 297.589 352.465 296.972 353.816 296.972C355.124 296.972 356.421 297.44 357.782 298.405C357.822 298.434 357.874 298.446 357.924 298.438C357.976 298.431 358.02 298.404 358.051 298.364L359.467 296.465C359.526 296.387 359.51 296.279 359.431 296.219C357.812 294.984 355.989 294.383 353.858 294.383C350.725 294.383 348.536 296.171 348.536 298.73C348.536 301.473 350.424 302.445 353.688 303.195C356.463 303.803 356.933 304.312 356.933 305.223C356.933 306.233 355.985 306.861 354.46 306.861C352.766 306.861 351.384 306.317 349.838 305.046C349.8 305.013 349.748 305 349.7 305.002C349.648 305.005 349.601 305.028 349.569 305.065L347.98 306.862C347.914 306.939 347.922 307.05 347.998 307.114C349.796 308.641 352.008 309.447 354.396 309.447C357.772 309.447 359.953 307.693 359.953 304.977C359.959 302.685 358.516 301.416 354.982 300.599L354.976 300.596ZM367.591 297.875C366.128 297.875 364.928 298.423 363.937 299.546V298.282C363.937 298.182 363.852 298.101 363.748 298.101H361.149C361.045 298.101 360.96 298.182 360.96 298.282V312.328C360.96 312.428 361.045 312.51 361.149 312.51H363.748C363.852 312.51 363.937 312.428 363.937 312.328V307.895C364.928 308.95 366.128 309.468 367.591 309.468C370.311 309.468 373.064 307.477 373.064 303.672C373.068 299.866 370.315 297.874 367.593 297.874L367.591 297.875ZM370.042 303.672C370.042 305.609 368.787 306.962 366.989 306.962C365.213 306.962 363.873 305.548 363.873 303.672C363.873 301.796 365.213 300.382 366.989 300.382C368.757 300.382 370.042 301.765 370.042 303.672ZM380.118 297.875C376.616 297.875 373.873 300.439 373.873 303.713C373.873 306.952 376.598 309.489 380.076 309.489C383.59 309.489 386.342 306.933 386.342 303.672C386.342 300.421 383.608 297.875 380.118 297.875V297.875ZM380.118 306.981C378.256 306.981 376.851 305.557 376.851 303.671C376.851 301.776 378.208 300.401 380.076 300.401C381.951 300.401 383.363 301.824 383.363 303.712C383.363 305.607 381.999 306.981 380.118 306.981ZM393.819 298.101H390.96V295.321C390.96 295.221 390.875 295.14 390.771 295.14H388.172C388.068 295.14 387.981 295.221 387.981 295.321V298.101H386.733C386.629 298.101 386.544 298.182 386.544 298.282V300.405C386.544 300.505 386.629 300.586 386.733 300.586H387.981V306.082C387.981 308.301 389.143 309.428 391.437 309.428C392.368 309.428 393.141 309.244 393.87 308.851C393.93 308.821 393.966 308.76 393.966 308.695V306.672C393.966 306.611 393.932 306.551 393.876 306.519C393.819 306.485 393.749 306.483 393.691 306.511C393.191 306.75 392.708 306.861 392.166 306.861C391.333 306.861 390.96 306.5 390.96 305.694V300.587H393.819C393.924 300.587 394.008 300.506 394.008 300.406V298.283C394.012 298.183 393.928 298.102 393.821 298.102L393.819 298.101ZM403.782 298.111V297.77C403.782 296.766 404.187 296.318 405.094 296.318C405.636 296.318 406.071 296.42 406.559 296.574C406.619 296.592 406.682 296.583 406.73 296.549C406.78 296.515 406.808 296.46 406.808 296.402V294.32C406.808 294.241 406.756 294.17 406.674 294.147C406.16 294.001 405.502 293.852 404.514 293.852C402.116 293.852 400.846 295.137 400.846 297.567V298.09H399.597C399.493 298.09 399.407 298.171 399.407 298.271V300.405C399.407 300.505 399.493 300.586 399.597 300.586H400.846V309.061C400.846 309.162 400.932 309.242 401.036 309.242H403.633C403.739 309.242 403.824 309.162 403.824 309.061V300.587H406.25L409.967 309.061C409.545 309.95 409.13 310.128 408.564 310.128C408.106 310.128 407.623 309.998 407.131 309.741C407.085 309.718 407.029 309.714 406.981 309.727C406.93 309.744 406.888 309.779 406.868 309.824L405.987 311.662C405.945 311.75 405.981 311.851 406.069 311.897C406.989 312.37 407.817 312.573 408.843 312.573C410.762 312.573 411.823 311.722 412.756 309.435L417.264 298.359C417.288 298.303 417.28 298.24 417.244 298.191C417.21 298.142 417.152 298.112 417.089 298.112H414.384C414.302 298.112 414.229 298.161 414.203 298.233L411.432 305.759L408.397 298.228C408.369 298.158 408.299 298.112 408.221 298.112H403.782V298.111ZM398.006 298.101H395.407C395.302 298.101 395.216 298.182 395.216 298.282V309.061C395.216 309.162 395.302 309.242 395.407 309.242H398.006C398.11 309.242 398.196 309.162 398.196 309.061V298.282C398.196 298.183 398.112 298.101 398.006 298.101V298.101ZM396.721 293.192C395.692 293.192 394.857 293.984 394.857 294.963C394.857 295.943 395.692 296.736 396.721 296.736C397.751 296.736 398.584 295.943 398.584 294.963C398.584 293.985 397.749 293.192 396.721 293.192Z" fill="#1ED760"/>
<rect x="83.1938" y="210.296" width="182.366" height="56.5479" rx="20" fill="#EFEFEF"/>
<path d="M129.711 252.492C127.858 252.804 125.972 252.898 124.021 253.148L118.07 236.416V253.866C116.217 254.053 114.526 254.303 112.769 254.552V222.588H117.712L124.476 240.724V222.588H129.711V252.492ZM139.955 234.293L146.915 234.2V239.189L139.955 239.283V246.712L149.158 246.181V250.987L134.752 252.08V222.588H149.158V227.578H139.955V234.289V234.293ZM168.507 227.582H163.11V250.556L157.911 250.619V227.582H152.508V222.588H168.507L168.507 227.582ZM176.962 233.95H184.084V238.94H176.962V250.276H171.856V222.588H186.393V227.578H176.962V233.945V233.95ZM194.847 245.905C197.807 245.968 200.798 246.186 203.692 246.342V251.274L189.644 250.618V222.588H194.842V245.905H194.847ZM208.083 251.618C209.742 251.711 211.498 251.805 213.189 251.992V222.588H208.083V251.618ZM235.985 222.588L229.383 237.79L235.985 254.552C234.034 254.303 232.082 253.959 230.131 253.647L226.391 244.408L222.587 252.898C220.7 252.586 218.88 252.492 216.994 252.242L223.693 237.602L217.644 222.588H223.237L226.651 230.985L230.294 222.588H235.985Z" fill="#D81F26"/>
<rect x="274.719" y="209.073" width="182.366" height="56.5479" rx="20" fill="#EFEFEF"/>
<path fill-rule="evenodd" clip-rule="evenodd" d="M380.077 244.122V227.326C380.077 221.625 386.381 220.401 390.882 222.027V225.219C387.789 224.021 384.314 224.297 384.314 228.014H389.342V231.203H384.314V244.06L380.077 244.122Z" fill="#FBBA00"/>
<path fill-rule="evenodd" clip-rule="evenodd" d="M400.038 225.523H403.169L403.812 228.016H407.707V231.203H404.277V238.626C404.277 240.113 404.953 240.858 406.305 240.859H408.452V244.046H404.26C401.446 244.046 400.039 242.614 400.039 239.75L400.038 225.523Z" fill="#FBBA00"/>
<path d="M396.809 228.015H392.572V244.044H396.809V228.015Z" fill="#FBBA00"/>
<path d="M396.809 222.214H392.572V225.523H396.809V222.214Z" fill="#FBBA00"/>
<path fill-rule="evenodd" clip-rule="evenodd" d="M412.006 244.048C408.283 249.626 401.728 253.329 394.263 253.329C386.798 253.329 380.247 249.626 376.522 244.048C380.897 247.876 387.226 250.281 394.263 250.281C401.3 250.281 407.631 247.875 412.006 244.048Z" fill="#FBBA00"/>
<path d="M320.322 240.361V238.171C321.544 238.636 322.954 238.868 324.553 238.868C325.746 238.868 326.342 238.503 326.342 237.775C326.342 237.109 325.938 236.78 325.138 236.78H323.148C320.915 236.779 319.799 235.717 319.799 233.594C319.799 231.411 321.43 230.319 324.69 230.319C326.017 230.31 327.337 230.511 328.595 230.913V233.102C327.373 232.637 326.049 232.407 324.616 232.407C323.114 232.407 322.368 232.77 322.368 233.5C322.365 234.16 322.801 234.49 323.676 234.491H325.452C327.892 234.491 329.113 235.551 329.115 237.672C329.115 239.863 327.559 240.958 324.448 240.955C322.919 240.955 321.543 240.757 320.322 240.361ZM331.051 240.859V230.414H333.198L333.522 231.728C334.783 230.852 336.038 230.414 337.28 230.414C338.663 230.414 339.644 230.891 340.224 231.847C341.624 230.89 342.939 230.412 344.167 230.414C346.486 230.414 347.645 231.736 347.645 234.381V240.859H344.867V234.286C344.867 233.128 344.352 232.548 343.321 232.547C342.495 232.547 341.633 232.997 340.733 233.898V240.859H337.962V234.312C337.962 233.133 337.452 232.544 336.433 232.542C335.553 232.542 334.684 232.993 333.828 233.894V240.859H331.051ZM349.653 237.607C349.653 235.466 351.243 234.395 354.424 234.396C355.28 234.388 356.136 234.453 356.98 234.592V233.906C356.98 232.973 356.027 232.506 354.121 232.505C352.909 232.507 351.704 232.674 350.542 233.003V230.912C351.704 230.585 352.909 230.418 354.121 230.416C357.877 230.416 359.754 231.563 359.751 233.856V240.859H358.348L357.156 240.122C356.22 240.61 355.169 240.864 354.102 240.859C351.135 240.859 349.653 239.775 349.654 237.607M356.981 236.581C356.281 236.449 355.431 236.385 354.426 236.385C353.091 236.383 352.424 236.779 352.424 237.572C352.424 238.366 352.982 238.764 354.1 238.767C355.228 238.767 356.188 238.496 356.98 237.953L356.981 236.581ZM362.454 240.859V230.414H364.601L364.943 231.745C365.909 230.86 366.929 230.416 368.003 230.414V232.542C366.969 232.542 366.044 232.983 365.229 233.863V240.859H362.454ZM369.72 228.724H371.771L372.193 230.414H374.745V232.503H372.497V237.306C372.497 238.28 372.94 238.768 373.826 238.769H374.745V240.859H372.487C370.642 240.859 369.72 239.92 369.72 238.042V228.724Z" fill="black"/>
<rect x="182.606" y="140.802" width="182.366" height="56.5479" rx="20" fill="#EFEFEF"/>
<path d="M258.868 161.453H263.546C267.554 161.453 270.084 163.92 270.084 167.751C270.084 171.582 267.564 174.049 263.546 174.049H258.868V161.453ZM263.437 171.728C265.956 171.728 267.333 170.198 267.333 167.751C267.333 165.284 265.944 163.752 263.437 163.752H261.6V171.729L263.437 171.728ZM277.183 167.387C276.825 167.175 276.332 167.089 275.84 167.089C274.945 167.089 274.205 167.537 274.004 168.387V174.067H271.317V164.877H274.004V165.77C274.407 165.111 275.212 164.664 276.153 164.664C276.592 164.664 277.026 164.749 277.161 164.833L277.183 167.387ZM282.511 174.237C279.713 174.237 277.787 172.259 277.787 169.45C277.787 166.621 279.712 164.643 282.511 164.643C285.31 164.643 287.235 166.621 287.235 169.45C287.235 172.28 285.332 174.237 282.511 174.237ZM282.511 166.846C281.168 166.846 280.429 167.952 280.429 169.483C280.429 170.993 281.168 172.099 282.511 172.099C283.854 172.099 284.593 170.993 284.593 169.483C284.593 167.953 283.854 166.846 282.511 166.846ZM291.063 177.439H288.377V164.889H291.063V165.644C291.489 165.155 292.452 164.687 293.481 164.687C296.28 164.687 297.892 166.899 297.892 169.494C297.892 172.068 296.304 174.28 293.481 174.28C292.452 174.28 291.487 173.812 291.063 173.323V177.439ZM291.063 170.972C291.377 171.61 292.093 172.036 292.877 172.036C294.332 172.036 295.183 170.929 295.183 169.483C295.183 168.026 294.31 166.909 292.877 166.909C292.5 166.908 292.13 167.007 291.81 167.195C291.489 167.383 291.231 167.652 291.063 167.973V170.972ZM301.742 174.056H299.056V160.732H301.742V165.644C302.167 165.155 303.13 164.687 304.16 164.687C306.958 164.687 308.548 166.856 308.548 169.494C308.548 172.132 306.981 174.28 304.16 174.28C303.13 174.28 302.166 173.812 301.742 173.323V174.056ZM301.742 170.972C302.034 171.61 302.75 172.036 303.556 172.036C305.01 172.036 305.862 170.929 305.862 169.483C305.862 168.026 304.989 166.909 303.556 166.909C302.772 166.909 302.055 167.357 301.742 167.973V170.972ZM314.213 174.291C311.414 174.291 309.488 172.313 309.488 169.504C309.488 166.675 311.413 164.697 314.213 164.697C317.012 164.697 318.937 166.675 318.937 169.504C318.937 172.312 317.012 174.291 314.213 174.291ZM314.213 166.866C312.869 166.866 312.131 167.973 312.131 169.504C312.131 171.014 312.869 172.12 314.213 172.12C315.556 172.12 316.294 171.014 316.294 169.504C316.294 167.974 315.556 166.866 314.213 166.866ZM228.843 154.152L218.873 160.255L225.775 165.538L235.778 159.677M218.873 170.729L228.843 176.955L235.778 171.437L225.775 165.545M235.778 171.437L242.746 176.955L252.683 170.792L245.814 165.539" fill="#007EE5"/>
<path d="M252.68 160.304L242.743 154.142L235.775 159.659L245.81 165.52M235.807 172.594L228.839 178.091L225.835 176.238V178.333L235.805 184.011L245.775 178.333V176.238L242.771 178.091M325.192 169.378L328.706 174.121H325.751L323.67 171.248L321.566 174.121H318.768L322.238 169.441L318.97 164.952H321.924L323.783 167.547L325.686 164.952H328.484L325.192 169.378Z" fill="#007EE5"/>
<path d="M238.535 358.836C239.52 358.691 240.613 358.671 241.488 359.194C242.753 359.902 243.475 361.183 243.974 362.441C245.376 366.066 245.509 370.031 244.921 373.82C244.789 374.79 244.394 375.886 243.383 376.327C242.785 376.516 242.019 376.466 241.604 375.966C240.934 375.205 241.145 374.154 241.201 373.247C241.419 371.816 241.502 370.363 241.433 368.92C241.427 368.262 241.191 367.548 240.591 367.16C240.084 366.8 239.352 366.869 238.85 367.199C237.998 367.719 237.44 368.556 236.983 369.389C235.862 371.56 235.242 373.915 234.406 376.188C233.987 377.244 233.311 378.25 232.308 378.894C231.105 379.691 229.577 379.901 228.137 379.853C226.298 379.77 224.643 378.684 223.677 377.246C222.475 375.417 221.404 373.512 220.229 371.667C219.856 371.131 219.353 370.444 218.575 370.523C217.758 370.594 217.448 371.455 217.474 372.12C217.532 374.396 218.703 376.469 219.12 378.685C219.265 379.368 219.058 380.226 218.326 380.536C217.879 380.594 217.411 380.646 216.968 380.538C216.318 380.305 215.98 379.672 215.689 379.123C214.674 376.833 214.042 374.403 213.717 371.947C213.763 370.688 213.637 369.412 213.92 368.17C214.307 366.143 214.899 363.998 216.497 362.501C217.873 361.189 220.243 360.799 221.912 361.833C223.532 362.889 224.533 364.529 225.596 366.045C226.376 367.213 227.104 368.586 228.536 369.147C229.523 369.599 230.79 369.322 231.516 368.562C232.036 368.057 232.294 367.383 232.569 366.743C233.153 365.366 233.736 363.991 234.376 362.636C235.104 360.9 236.538 359.286 238.535 358.836ZM310.15 363.206C310.896 363.152 311.646 363.184 312.392 363.208C312.448 363.914 312.346 364.625 312.459 365.327C313.223 365.302 313.991 365.282 314.755 365.338C314.775 365.963 314.847 366.595 314.705 367.213C313.943 367.199 313.184 367.203 312.424 367.216C312.388 368.725 312.416 370.237 312.406 371.746C312.414 372.386 312.404 373.122 312.922 373.606C313.437 374.069 314.211 373.998 314.869 374.054C314.963 374.702 314.971 375.362 314.843 376.006C313.592 376.019 312.216 375.996 311.195 375.22C310.277 374.533 310.016 373.375 309.986 372.326C309.968 369.511 309.998 366.695 309.974 363.88C310.026 363.673 309.853 363.279 310.15 363.206ZM253.655 366.126C254.786 365.171 256.397 365.053 257.847 365.103C259.028 365.1 260.213 365.405 261.144 366.1C262.188 365.081 263.805 365.077 265.201 365.103C266.476 365.103 267.838 365.46 268.698 366.394C269.332 367.094 269.45 368.051 269.47 368.937C269.478 370.808 269.47 372.679 269.474 374.552C269.47 375.038 269.529 375.537 269.366 376.006C268.624 375.976 267.882 376.038 267.144 375.97L267.066 375.865C266.986 373.427 267.138 370.982 266.982 368.547C266.996 367.764 266.226 367.19 265.445 367.137C264.553 367.085 263.516 366.984 262.788 367.578C262.245 367.999 262.309 368.718 262.275 369.312C262.251 371.249 262.261 373.187 262.267 375.124C262.217 375.396 262.361 375.784 262.112 375.983C261.356 376.008 260.59 376.034 259.836 375.951C259.836 373.48 259.898 371.009 259.772 368.539C259.768 367.706 258.885 367.147 258.065 367.124C257.313 367.089 256.495 367.032 255.817 367.396C255.378 367.625 255.113 368.079 255.101 368.547C254.929 371.027 255.091 373.516 254.991 375.998C254.227 375.998 253.464 375.993 252.702 376.004C252.625 375.658 252.593 375.304 252.606 374.951C252.632 372.881 252.586 370.812 252.628 368.744C252.64 367.8 252.867 366.775 253.655 366.126ZM274.492 365.317C276.247 364.991 278.194 364.923 279.843 365.676C281.395 366.424 281.786 368.207 281.85 369.705C281.873 371.348 281.979 373.146 281.022 374.6C280.132 375.912 278.319 376.214 276.787 376.18C275.319 376.218 273.65 376.021 272.621 374.929C271.508 373.623 271.518 371.836 271.516 370.247C271.56 368.946 271.683 367.524 272.551 366.453C273.03 365.873 273.75 365.511 274.492 365.317ZM275.491 367.181C274.797 367.32 274.288 367.892 274.153 368.53C273.905 369.914 273.902 371.327 274.145 372.713C274.282 373.257 274.611 373.825 275.21 374.009C276.103 374.287 277.089 374.272 277.998 374.066C278.66 373.938 279.081 373.36 279.233 372.776C279.504 371.358 279.492 369.9 279.231 368.481C279.053 367.826 278.503 367.25 277.767 367.154C277.013 367.07 276.239 367.057 275.491 367.181ZM301.39 365.633C303.023 364.865 304.942 365.071 306.685 365.317C306.911 365.4 307.361 365.325 307.405 365.631C307.433 366.147 307.427 366.667 307.415 367.184C307.346 367.211 307.206 367.265 307.136 367.291C305.874 367.085 304.575 366.873 303.295 367.064C302.792 367.145 302.152 367.428 302.16 367.988C302.046 368.464 302.487 368.796 302.886 368.98C304.29 369.586 305.882 369.868 307.122 370.776C308.161 371.521 308.265 372.919 307.934 374.019C307.409 375.415 305.788 376.077 304.316 376.152C302.916 376.212 301.446 376.177 300.137 375.666C299.888 375.088 300.046 374.409 300.068 373.793C301.655 374.154 303.36 374.548 304.966 374.058C305.788 373.853 306.089 372.729 305.377 372.245C303.953 371.423 302.18 371.264 300.823 370.32C299.258 369.132 299.603 366.479 301.39 365.633ZM317.607 365.747C317.536 365.475 317.853 365.317 318.09 365.306C319.732 365.098 321.419 364.97 323.052 365.308C324.098 365.557 325.121 366.16 325.571 367.117C326.142 368.275 325.924 369.579 325.966 370.812C325.938 372.028 326.112 373.322 325.538 374.458C324.983 375.546 323.639 375.998 322.448 376.143C320.962 376.229 319.369 376.246 318.03 375.544C315.828 374.385 315.914 370.857 318.164 369.785C319.823 368.961 321.768 369.23 323.551 369.421C323.599 368.633 323.465 367.65 322.594 367.295C320.992 366.712 319.265 367.199 317.613 367.186C317.609 366.706 317.589 366.226 317.607 365.747ZM319.221 373.67C319.887 374.349 320.962 374.298 321.862 374.268C322.47 374.248 323.172 374.007 323.417 373.437C323.625 372.754 323.521 372.031 323.555 371.33C322.42 371.052 321.203 370.984 320.051 371.196C318.902 371.393 318.453 372.883 319.221 373.67ZM328.956 366.197C330.219 365 332.169 365.03 333.833 365.141C333.881 365.775 333.867 366.411 333.821 367.046C332.901 367.194 331.832 366.873 331.036 367.447C330.546 367.783 330.494 368.404 330.478 368.926C330.432 371.268 330.478 373.611 330.454 375.953C329.674 376.049 328.888 375.97 328.107 376.011C327.915 374.105 328.077 372.176 328.023 370.26C328.061 368.885 327.829 367.271 328.956 366.197ZM283.176 365.33C284.018 365.317 284.873 365.229 285.705 365.389C285.906 368.292 286.78 371.146 288.144 373.75C288.378 373.467 288.523 373.133 288.665 372.803C289.734 370.453 290.474 367.946 290.621 365.385C291.449 365.235 292.299 365.312 293.137 365.336C293.025 369.029 291.377 372.487 289.61 375.722C289.487 376.071 289.05 375.983 288.755 376.002C288.136 375.983 287.514 376.041 286.902 375.963L286.702 375.73C284.855 372.521 283.282 369.033 283.176 365.33ZM295.133 365.34C295.931 365.284 296.735 365.291 297.534 365.332C297.568 368.858 297.59 372.392 297.526 375.916C296.789 376.117 295.957 375.934 295.185 376.004C295.143 372.452 295.081 368.894 295.133 365.34Z" fill="#00ABE1"/>
</svg>
